<!-- svg icons -->
<svg xmlns="http://www.w3.org/2000/svg" style="display: none;">
    <symbol id="cab" viewBox="0 0 72.887 36.896">
        <path d="M69.991,17.958c2.035,1.068,2.881,2.124,2.881,3.993c0,1.868,0.033,7.705,0,8.642s-2.428,1.471-2.428,1.471
            H1.788c0,0-1.787-0.589-1.787-1.458c-0.002-0.867,0-5.449,0-8.654c0-3.206,0.426-4.065,1.943-4.799
            c1.516-0.732,3.953-0.056,5.225-1.243c1.27-1.187,3.664-9.652,4.734-11.051c1.068-1.398,2.248-1.943,3.42-1.943
            c1.174,0,9.332,0,9.332,0L25.917,0h4.73l1.457,2.915c0,0,4.377,0,5.871,0s3.189,0.63,5.563,1.943
            c2.371,1.313,10.588,9.886,14.836,11.185C62.624,17.343,67.954,16.889,69.991,17.958z"/>
        <circle cx="53.669" cy="27.679" r="9.219"/>
        <circle cx="16.457" cy="27.679" r="9.218"/>
    </symbol>
    <symbol id="slider" viewBox="0 0 22.584 83.922">
        <path d="M11.291,83.922c-1.104,0-2-0.896-2-2V22.584c0-1.104,0.896-2,2-2s2,0.896,2,2v59.338
		C13.291,83.026,12.396,83.922,11.291,83.922L11.291,83.922z"/>
        <circle cx="11.292" cy="11.292" r="10.8"/>
    </symbol>
    <symbol id="accident" viewBox="0 0 60 60">
        <polygon fill="#FFAB4A" points="57.681,45.155 39.558,42.267 35.234,60 26.207,44.113 9.565,51.812 16.43,34.888 0,26.751 
        17.589,21.536 13.744,3.693 28.813,14.113 40.447,0 41.647,18.207 60,18.452 46.429,30.738 "/>
    </symbol>
    <symbol id="ville-cab" width="60" height="30.516" viewBox="0 0 59.31 30.516">
        <path stroke="#000000" d="M58.799,18.061c0-1.496-0.678-2.34-2.307-3.195s-5.893-0.492-9.293-1.531
		c-3.398-1.039-9.973-7.896-11.869-8.947s-3.254-1.555-4.449-1.555s-4.697,0-4.697,0L25.018,0.5h-3.785l-1.008,2.332
		c0,0-6.525,0-7.465,0s-1.881,0.436-2.738,1.555c-0.854,1.117-2.77,7.891-3.787,8.84s-2.965,0.408-4.18,0.994
		C0.842,14.809,0.5,15.494,0.5,18.061c0,2.564,0,6.229,0,6.924c0.002,0.695,1.43,1.166,1.43,1.166h5.248
		c1.246,2.303,3.684,3.865,6.488,3.865c2.803,0,5.238-1.563,6.486-3.865h16.795c1.248,2.303,3.686,3.865,6.486,3.865
		c2.805,0,5.242-1.563,6.488-3.865h6.934c0,0,1.914-0.428,1.943-1.178C58.824,24.225,58.799,19.555,58.799,18.061z"/>
    </symbol>
    <symbol id="head_wrong" viewBox="0 0 30.1 44.5">
        <g>
            <path fill="none" stroke="#FF5252" stroke-width="3.0984" d="M28.364,22.893c0,0-0.606-5.053-1.251-6.533
                c-0.249-0.57-0.627-0.98-0.992-1.266l0.002-3.512c0.008-5.523-4.251-10.011-9.509-10.019L11.082,1.56
                C5.823,1.558,1.559,6.03,1.553,11.562l-0.009,8.954c-0.004,4.271,2.543,7.91,6.125,9.349L7.66,39.752
                c-0.002,3.574,2.756,3.17,6.153,3.172c3.403,0.007,6.158,0.414,6.164-3.16l0.002-4.51c3.181,1.135,6.122,0.642,6.126-3.081
                l0.009-9.282L28.364,22.893z"/>
        </g>
        <g>
            <line fill="none" stroke="#FF5252" stroke-width="2.1059" stroke-linecap="round" stroke-linejoin="round" x1="10.345" y1="18.944" x2="17.714" y2="7.506"/>
            <line fill="none" stroke="#FF5252" stroke-width="2.1059" stroke-linecap="round" stroke-linejoin="round" x1="17.851" y1="18.854" x2="10.209" y2="7.596"/>
        </g>
    </symbol>
    <symbol id="head_right" viewBox="0 0 30.1 44.5">
        <g>
		    <path fill="none" stroke="#3FE09C" stroke-width="3.0975" d="M28.358,22.891c0,0-0.605-5.049-1.252-6.529
                c-0.248-0.57-0.625-0.98-0.99-1.266l0.002-3.512c0.006-5.521-4.25-10.008-9.506-10.014l-5.531-0.004
                c-5.258-0.002-9.52,4.469-9.525,9.998l-0.01,8.951c-0.004,4.27,2.543,7.91,6.123,9.348l-0.008,9.883
                c-0.002,3.574,2.754,3.17,6.15,3.172c3.404,0.004,6.158,0.412,6.164-3.158l0.002-4.51c3.18,1.135,6.119,0.641,6.121-3.08
                l0.01-9.279H28.358z"/>
	    </g>
	    <polyline fill="none" stroke="#3FE09C" stroke-width="2.065" stroke-linecap="round" stroke-linejoin="round" points="8.567,13.438 12.345,18.953 19.532,7.547"/>
    </symbol>
    <symbol id="cab_green_seengreen" viewBox="0 0 72.887 83.877">
        <g>
            <path fill="#83FB4C" d="M69.99,64.936c2.035,1.07,2.883,2.125,2.883,3.996c0,1.867,0.031,7.703,0,8.641
                c-0.035,0.938-2.43,1.469-2.43,1.469H1.787c0,0-1.785-0.586-1.785-1.457c-0.004-0.867,0-5.449,0-8.652
                c0-3.207,0.426-4.066,1.941-4.801c1.516-0.73,3.953-0.055,5.227-1.242c1.27-1.188,3.664-9.652,4.734-11.051
                c1.066-1.398,2.246-1.945,3.418-1.945c1.176,0,9.332,0,9.332,0l1.262-2.914h4.73l1.457,2.914c0,0,4.379,0,5.871,0
                c1.496,0,3.191,0.633,5.563,1.945s10.59,9.887,14.836,11.184C62.623,64.322,67.955,63.869,69.99,64.936z"/>
            <circle fill="#83FB4C" cx="53.67" cy="74.658" r="9.219"/>
            <path fill="#83FB4C" d="M25.674,74.658c0,5.09-4.125,9.219-9.219,9.219c-5.09,0-9.215-4.129-9.215-9.219s4.125-9.219,9.215-9.219
                C21.549,65.439,25.674,69.568,25.674,74.658z"/>
        </g>
        <g>
            <g>
                <path fill="none" stroke="#3FE09C" stroke-width="4.096" d="M69.314,19.406c0,0-14.717,17.356-32.873,17.356
                    c-18.152,0-32.869-17.356-32.869-17.356S18.289,2.048,36.441,2.048C54.598,2.048,69.314,19.406,69.314,19.406z"/>
            </g>
            <g>
                <path fill="#83FB4C" d="M50.184,17.924c0.834,0.438,1.182,0.87,1.182,1.637c0,0.766,0.014,3.155,0,3.539
                    c-0.014,0.383-0.996,0.602-0.996,0.602H22.248c0,0-0.732-0.24-0.732-0.597c0-0.355,0-2.231,0-3.544
                    c0-1.313,0.176-1.665,0.797-1.967c0.621-0.299,1.619-0.022,2.141-0.508c0.52-0.487,1.5-3.955,1.938-4.527s0.922-0.797,1.4-0.797
                    c0.482,0,3.822,0,3.822,0l0.52-1.193h1.938l0.596,1.193c0,0,1.793,0,2.404,0c0.613,0,1.309,0.26,2.279,0.797
                    s4.338,4.049,6.076,4.58C47.166,17.673,49.352,17.486,50.184,17.924z"/>
                <circle fill="#83FB4C" cx="43.499" cy="21.905" r="3.776"/>
                <circle fill="#83FB4C" cx="28.257" cy="21.905" r="3.774"/>
            </g>
        </g>
    </symbol>
    <symbol id="cab_green_seenblue" viewBox="0 0 72.887 83.877">
        <g>
            <path fill="#83FB4C" d="M69.99,64.936c2.035,1.07,2.883,2.125,2.883,3.996c0,1.867,0.031,7.703,0,8.641
                c-0.035,0.938-2.43,1.469-2.43,1.469H1.787c0,0-1.785-0.586-1.785-1.457c-0.004-0.867,0-5.449,0-8.652
                c0-3.207,0.426-4.066,1.941-4.801c1.516-0.73,3.953-0.055,5.227-1.242c1.27-1.188,3.664-9.652,4.734-11.051
                c1.066-1.398,2.246-1.945,3.418-1.945c1.176,0,9.332,0,9.332,0l1.262-2.914h4.73l1.457,2.914c0,0,4.379,0,5.871,0
                c1.496,0,3.191,0.633,5.563,1.945s10.59,9.887,14.836,11.184C62.623,64.322,67.955,63.869,69.99,64.936z"/>
            <circle fill="#83FB4C" cx="53.67" cy="74.658" r="9.219"/>
            <path fill="#83FB4C" d="M25.674,74.658c0,5.09-4.125,9.219-9.219,9.219c-5.09,0-9.215-4.129-9.215-9.219s4.125-9.219,9.215-9.219
                C21.549,65.439,25.674,69.568,25.674,74.658z"/>
        </g>
        <g>
            <g>
                <path fill="none" stroke="#FF5252" stroke-width="4.096" d="M69.314,19.406c0,0-14.717,17.356-32.873,17.356
                    c-18.152,0-32.869-17.356-32.869-17.356S18.289,2.048,36.441,2.048C54.598,2.048,69.314,19.406,69.314,19.406z"/>
            </g>
            <g>
                <path fill="#43BBF6" d="M50.184,17.924c0.834,0.438,1.182,0.87,1.182,1.637c0,0.766,0.014,3.155,0,3.539
                    c-0.014,0.383-0.996,0.602-0.996,0.602H22.248c0,0-0.732-0.24-0.732-0.597c0-0.355,0-2.231,0-3.544
                    c0-1.313,0.176-1.665,0.797-1.967c0.621-0.299,1.619-0.022,2.141-0.508c0.52-0.487,1.5-3.955,1.938-4.527s0.922-0.797,1.4-0.797
                    c0.482,0,3.822,0,3.822,0l0.52-1.193h1.938l0.596,1.193c0,0,1.793,0,2.404,0c0.613,0,1.309,0.26,2.279,0.797
                    s4.338,4.049,6.076,4.58C47.166,17.673,49.352,17.486,50.184,17.924z"/>
                <circle fill="#43BBF6" cx="43.499" cy="21.905" r="3.776"/>
                <circle fill="#43BBF6" cx="28.257" cy="21.905" r="3.774"/>
            </g>
        </g>
    </symbol>
    <symbol id="cab_blue_seenblue" viewBox="0 0 72.887 83.877">
        <g>
            <path fill="#43BBF6" d="M69.99,64.936c2.035,1.07,2.883,2.125,2.883,3.996c0,1.867,0.031,7.703,0,8.641
                c-0.035,0.938-2.43,1.469-2.43,1.469H1.787c0,0-1.785-0.586-1.785-1.457c-0.004-0.867,0-5.449,0-8.652
                c0-3.207,0.426-4.066,1.941-4.801c1.516-0.73,3.953-0.055,5.227-1.242c1.27-1.188,3.664-9.652,4.734-11.051
                c1.066-1.398,2.246-1.945,3.418-1.945c1.176,0,9.332,0,9.332,0l1.262-2.914h4.73l1.457,2.914c0,0,4.379,0,5.871,0
                c1.496,0,3.191,0.633,5.563,1.945s10.59,9.887,14.836,11.184C62.623,64.322,67.955,63.869,69.99,64.936z"/>
            <circle fill="#43BBF6" cx="53.67" cy="74.658" r="9.219"/>
            <path fill="#43BBF6" d="M25.674,74.658c0,5.09-4.125,9.219-9.219,9.219c-5.09,0-9.215-4.129-9.215-9.219s4.125-9.219,9.215-9.219
                C21.549,65.439,25.674,69.568,25.674,74.658z"/>
        </g>
        <g>
            <g>
                <path fill="none" stroke="#3FE09C" stroke-width="4.096" d="M69.314,19.406c0,0-14.717,17.356-32.873,17.356
                    c-18.152,0-32.869-17.356-32.869-17.356S18.289,2.048,36.441,2.048C54.598,2.048,69.314,19.406,69.314,19.406z"/>
            </g>
            <g>
                <path fill="#43BBF6" d="M50.184,17.924c0.834,0.438,1.182,0.87,1.182,1.637c0,0.766,0.014,3.155,0,3.539
                    c-0.014,0.383-0.996,0.602-0.996,0.602H22.248c0,0-0.732-0.24-0.732-0.597c0-0.355,0-2.231,0-3.544
                    c0-1.313,0.176-1.665,0.797-1.967c0.621-0.299,1.619-0.022,2.141-0.508c0.52-0.487,1.5-3.955,1.938-4.527s0.922-0.797,1.4-0.797
                    c0.482,0,3.822,0,3.822,0l0.52-1.193h1.938l0.596,1.193c0,0,1.793,0,2.404,0c0.613,0,1.309,0.26,2.279,0.797
                    s4.338,4.049,6.076,4.58C47.166,17.673,49.352,17.486,50.184,17.924z"/>
                <circle fill="#43BBF6" cx="43.499" cy="21.905" r="3.776"/>
                <circle fill="#43BBF6" cx="28.257" cy="21.905" r="3.774"/>
            </g>
        </g>
    </symbol>
    <symbol id="cab_blue_seengreen" viewBox="0 0 72.887 83.877">
        <g>
            <path fill="#43BBF6" d="M69.99,64.936c2.035,1.07,2.883,2.125,2.883,3.996c0,1.867,0.031,7.703,0,8.641
                c-0.035,0.938-2.43,1.469-2.43,1.469H1.787c0,0-1.785-0.586-1.785-1.457c-0.004-0.867,0-5.449,0-8.652
                c0-3.207,0.426-4.066,1.941-4.801c1.516-0.73,3.953-0.055,5.227-1.242c1.27-1.188,3.664-9.652,4.734-11.051
                c1.066-1.398,2.246-1.945,3.418-1.945c1.176,0,9.332,0,9.332,0l1.262-2.914h4.73l1.457,2.914c0,0,4.379,0,5.871,0
                c1.496,0,3.191,0.633,5.563,1.945s10.59,9.887,14.836,11.184C62.623,64.322,67.955,63.869,69.99,64.936z"/>
            <circle fill="#43BBF6" cx="53.67" cy="74.658" r="9.219"/>
            <path fill="#43BBF6" d="M25.674,74.658c0,5.09-4.125,9.219-9.219,9.219c-5.09,0-9.215-4.129-9.215-9.219s4.125-9.219,9.215-9.219
                C21.549,65.439,25.674,69.568,25.674,74.658z"/>
        </g>
        <g>
            <g>
                <path fill="none" stroke="#FF5252" stroke-width="4.096" d="M69.314,19.406c0,0-14.717,17.356-32.873,17.356
                    c-18.152,0-32.869-17.356-32.869-17.356S18.289,2.048,36.441,2.048C54.598,2.048,69.314,19.406,69.314,19.406z"/>
            </g>
            <g>
                <path fill="#83FB4C" d="M50.184,17.924c0.834,0.438,1.182,0.87,1.182,1.637c0,0.766,0.014,3.155,0,3.539
                    c-0.014,0.383-0.996,0.602-0.996,0.602H22.248c0,0-0.732-0.24-0.732-0.597c0-0.355,0-2.231,0-3.544
                    c0-1.313,0.176-1.665,0.797-1.967c0.621-0.299,1.619-0.022,2.141-0.508c0.52-0.487,1.5-3.955,1.938-4.527s0.922-0.797,1.4-0.797
                    c0.482,0,3.822,0,3.822,0l0.52-1.193h1.938l0.596,1.193c0,0,1.793,0,2.404,0c0.613,0,1.309,0.26,2.279,0.797
                    s4.338,4.049,6.076,4.58C47.166,17.673,49.352,17.486,50.184,17.924z"/>
                <circle fill="#83FB4C" cx="43.499" cy="21.905" r="3.776"/>
                <circle fill="#83FB4C" cx="28.257" cy="21.905" r="3.774"/>
            </g>
        </g>
    </symbol>
    <symbol id="share_facebook" viewBox="0 0 36 36">
        <path d="M15.46,27.791h4.045v-9.792h2.699l0.357-3.374h-3.057l0.004-1.689c0-0.881,0.086-1.353,1.348-1.353h1.688
            V8.208h-2.701c-3.242,0-4.383,1.638-4.383,4.391v2.026h-2.021V18h2.021V27.791z M18.001,36C8.06,36,0,27.941,0,18S8.06,0,18.001,0
            c9.939,0,18,8.059,18,18S27.94,36,18.001,36z"/>
        <path d="M70,0c-9.941,0-18,8.059-18,18s8.059,18,18,18c9.94,0,18-8.059,18-18S79.94,0,70,0z M77.158,14.336
            c0.007,0.158,0.007,0.315,0.007,0.475c0,4.874-3.716,10.505-10.505,10.505c-2.081,0-4.024-0.612-5.652-1.648
            c0.288,0.036,0.584,0.05,0.879,0.05c1.729,0,3.319-0.59,4.586-1.584c-1.612-0.028-2.98-1.094-3.448-2.563
            c0.224,0.042,0.453,0.064,0.69,0.064c0.339,0,0.663-0.043,0.973-0.13c-1.685-0.338-2.959-1.836-2.959-3.622c0-0.021,0-0.036,0-0.05
            c0.497,0.273,1.065,0.438,1.67,0.461c-0.986-0.663-1.642-1.792-1.642-3.075c0-0.677,0.18-1.31,0.497-1.856
            c1.821,2.231,4.543,3.708,7.61,3.858c-0.058-0.273-0.094-0.554-0.094-0.843c0-2.037,1.656-3.693,3.693-3.693
            c1.059,0,2.017,0.446,2.693,1.167c0.842-0.166,1.635-0.469,2.347-0.893c-0.28,0.863-0.864,1.591-1.627,2.044
            c0.749-0.094,1.462-0.287,2.124-0.583C78.504,13.162,77.878,13.817,77.158,14.336z"/>
        <g>
            <g>
                <path d="M119.808,12.079l-12.082-0.009l6.003,4.502L119.808,12.079z M114.393,19.056
                    c-0.08,0.054-0.165,0.098-0.254,0.131c-0.029,0.011-0.057,0.021-0.085,0.029c-0.106,0.031-0.215,0.052-0.325,0.052
                    c-0.002,0-0.003,0.001-0.005,0.001h-0.002c-0.002,0-0.003-0.001-0.005-0.001c-0.111-0.001-0.22-0.021-0.326-0.052
                    c-0.031-0.009-0.061-0.021-0.091-0.032c-0.087-0.033-0.169-0.076-0.247-0.129c-0.017-0.011-0.035-0.015-0.051-0.026l-7.68-5.76
                    v10.787l16.801,0.013V13.353l-7.688,5.681C114.422,19.043,114.406,19.046,114.393,19.056z M113.667,0.056
                    c-9.91,0-17.944,8.034-17.944,17.944s8.034,17.943,17.944,17.943S131.61,27.91,131.61,18S123.577,0.056,113.667,0.056z
                    M124.522,24.437c0,1.14-1.014,2.032-2.31,2.032h-16.98c-1.296,0-2.31-0.893-2.31-2.032V11.7c0-1.14,1.014-2.032,2.31-2.032h16.98
                    c1.296,0,2.31,0.893,2.31,2.032V24.437z"/>
            </g>
        </g>
    </symbol>
    <symbol id="share_twitter" viewBox="0 0 36 36">
        <path d="M-36.54,27.791h4.045v-9.792h2.699l0.357-3.374h-3.057l0.004-1.689c0-0.881,0.086-1.353,1.348-1.353h1.688
            V8.208h-2.701c-3.242,0-4.383,1.638-4.383,4.391v2.026h-2.021V18h2.021V27.791z M-33.999,36C-43.94,36-52,27.941-52,18
            s8.06-18,18.001-18c9.939,0,18,8.059,18,18S-24.06,36-33.999,36z"/>
        <path d="M18,0C8.059,0,0,8.059,0,18s8.059,18,18,18c9.94,0,18-8.059,18-18S27.94,0,18,0z M25.158,14.336
            c0.007,0.158,0.007,0.315,0.007,0.475c0,4.874-3.716,10.505-10.505,10.505c-2.081,0-4.024-0.612-5.652-1.648
            c0.288,0.036,0.584,0.05,0.879,0.05c1.729,0,3.319-0.59,4.586-1.584c-1.612-0.028-2.98-1.094-3.448-2.563
            c0.224,0.042,0.453,0.064,0.69,0.064c0.339,0,0.663-0.043,0.973-0.13c-1.685-0.338-2.959-1.836-2.959-3.622c0-0.021,0-0.036,0-0.05
            c0.497,0.273,1.065,0.438,1.67,0.461c-0.986-0.663-1.642-1.792-1.642-3.075c0-0.677,0.18-1.31,0.497-1.856
            c1.821,2.231,4.543,3.708,7.61,3.858c-0.058-0.273-0.094-0.554-0.094-0.843c0-2.037,1.656-3.693,3.693-3.693
            c1.059,0,2.017,0.446,2.693,1.167c0.842-0.166,1.635-0.469,2.347-0.893c-0.28,0.863-0.864,1.591-1.627,2.044
            c0.749-0.094,1.462-0.287,2.124-0.583C26.504,13.162,25.878,13.817,25.158,14.336z"/>
        <g>
            <g>
                <path d="M67.808,12.079L55.726,12.07l6.003,4.502L67.808,12.079z M62.393,19.056
                    c-0.08,0.054-0.165,0.098-0.254,0.131c-0.029,0.011-0.057,0.021-0.085,0.029c-0.106,0.031-0.215,0.052-0.325,0.052
                    c-0.002,0-0.003,0.001-0.005,0.001h-0.002c-0.002,0-0.003-0.001-0.005-0.001c-0.111-0.001-0.22-0.021-0.326-0.052
                    c-0.031-0.009-0.061-0.021-0.091-0.032c-0.087-0.033-0.169-0.076-0.247-0.129c-0.017-0.011-0.035-0.015-0.051-0.026l-7.68-5.76
                    v10.787l16.801,0.013V13.353l-7.688,5.681C62.422,19.043,62.406,19.046,62.393,19.056z M61.667,0.056
                    c-9.91,0-17.944,8.034-17.944,17.944s8.034,17.943,17.944,17.943S79.61,27.91,79.61,18S71.577,0.056,61.667,0.056z M72.522,24.437
                    c0,1.14-1.014,2.032-2.31,2.032h-16.98c-1.296,0-2.31-0.893-2.31-2.032V11.7c0-1.14,1.014-2.032,2.31-2.032h16.98
                    c1.296,0,2.31,0.893,2.31,2.032V24.437z"/>
            </g>
        </g>
    </symbol>
    <symbol id="share_mail" viewBox="0 0 36 36">
        <path d="M-80.207,27.791h4.045v-9.792h2.699l0.357-3.374h-3.057l0.004-1.689c0-0.881,0.086-1.353,1.348-1.353h1.688
            V8.208h-2.701c-3.242,0-4.383,1.638-4.383,4.391v2.026h-2.021V18h2.021V27.791z M-77.666,36c-9.941,0-18.001-8.059-18.001-18
            s8.06-18,18.001-18c9.939,0,18,8.059,18,18S-67.727,36-77.666,36z"/>
        <path d="M-25.667,0c-9.941,0-18,8.059-18,18s8.059,18,18,18c9.94,0,18-8.059,18-18S-15.727,0-25.667,0z
            M-18.509,14.336c0.007,0.158,0.007,0.315,0.007,0.475c0,4.874-3.716,10.505-10.505,10.505c-2.081,0-4.024-0.612-5.652-1.648
            c0.288,0.036,0.584,0.05,0.879,0.05c1.729,0,3.319-0.59,4.586-1.584c-1.612-0.028-2.98-1.094-3.448-2.563
            c0.224,0.042,0.453,0.064,0.69,0.064c0.339,0,0.663-0.043,0.973-0.13c-1.685-0.338-2.959-1.836-2.959-3.622c0-0.021,0-0.036,0-0.05
            c0.497,0.273,1.065,0.438,1.67,0.461c-0.986-0.663-1.642-1.792-1.642-3.075c0-0.677,0.18-1.31,0.497-1.856
            c1.821,2.231,4.543,3.708,7.61,3.858c-0.058-0.273-0.094-0.554-0.094-0.843c0-2.037,1.656-3.693,3.693-3.693
            c1.059,0,2.017,0.446,2.693,1.167c0.842-0.166,1.635-0.469,2.347-0.893c-0.28,0.863-0.864,1.591-1.627,2.044
            c0.749-0.094,1.462-0.287,2.124-0.583C-17.163,13.162-17.789,13.817-18.509,14.336z"/>
        <g>
            <g>
                <path d="M24.141,12.079L12.059,12.07l6.003,4.502L24.141,12.079z M18.726,19.056
                    c-0.08,0.054-0.165,0.098-0.254,0.131c-0.029,0.011-0.057,0.021-0.085,0.029c-0.106,0.031-0.215,0.052-0.325,0.052
                    c-0.002,0-0.003,0.001-0.005,0.001h-0.002c-0.002,0-0.003-0.001-0.005-0.001c-0.111-0.001-0.22-0.021-0.326-0.052
                    c-0.031-0.009-0.061-0.021-0.091-0.032c-0.087-0.033-0.169-0.076-0.247-0.129c-0.017-0.011-0.035-0.015-0.051-0.026l-7.68-5.76
                    v10.787l16.801,0.013V13.353l-7.688,5.681C18.755,19.043,18.739,19.046,18.726,19.056z M18,0.056C8.09,0.056,0.056,8.09,0.056,18
                    S8.09,35.943,18,35.943S35.943,27.91,35.943,18S27.91,0.056,18,0.056z M28.855,24.437c0,1.14-1.014,2.032-2.31,2.032H9.565
                    c-1.296,0-2.31-0.893-2.31-2.032V11.7c0-1.14,1.014-2.032,2.31-2.032h16.98c1.296,0,2.31,0.893,2.31,2.032V24.437z"/>
            </g>
        </g>
    </symbol>
</svg>
